#!OML:ASF Y:\EmotionMaleHayes\Project 1\Capture day 1\Session 1\Male1.ASF
:FULLY-SPECIFIED
:DEGREES
310
root 5.70907 17.1443 3.05703 57.1853 74.994 54.5668
lowerback 18.3991 -0.623977 -1.5581
upperback 14.3444 0.227306 -3.66827
thorax 5.26817 0.685545 -3.03094
lowerneck -8.75094 -10.5802 -9.06945
upperneck 46.0656 -9.16017 -2.83495
head 19.8041 -4.75425 -1.2228
rclavicle -6.75868e-015 3.33958e-014
rhumerus -13.5313 5.13342 -74.4815
rradius 39.2525
rwrist -9.25673
rhand -13.9124 -34.8713
rfingers 7.12502
rthumb 12.2136 -64.4947
lclavicle -6.75868e-015 3.33958e-014
lhumerus -2.57852 -16.9786 50.5699
lradius 74.9776
lwrist 50.1177
lhand -16.5969 -19.9799
lfingers 7.12502
lthumb 9.62429 9.78026
rfemur -16.157 -0.952845 4.37531
rtibia 31.4152
rfoot -19.7193 -4.77153
rtoes 4.16082
lfemur -1.10423 10.9055 -11.593
ltibia 16.3367
lfoot -6.49975 11.8262
ltoes -5.42369
311
root 5.71719 17.1554 3.10747 58.98 75.0044 56.2935
lowerback 18.2939 -1.05115 -2.07094
upperback 14.0392 -0.44919 -3.52289
thorax 4.95055 0.277032 -2.49223
lowerneck -9.03879 -10.1988 -9.92974
upperneck 45.8936 -8.13789 -3.27302
head 19.8012 -4.5578 -1.11147
rclavicle -1.19271e-014 -5.48646e-014
rhumerus -15.2096 10.1831 -74.849
rradius 40.688
rwrist -10.0574
rhand -13.638 -35.1326
rfingers 7.12502
rthumb 12.4781 -64.74
lclavicle -1.19271e-014 -5.48646e-014
lhumerus -3.62689 -14.1345 52.5413
lradius 73.297
lwrist 48.8659
lhand -18.9258 -20.8512
lfingers 7.12502
lthumb 7.37676 9.00022
rfemur -16.088 -1.17854 4.27358
rtibia 31.3732
rfoot -19.7514 -4.99486
rtoes 4.25888
lfemur -1.31358 10.9417 -11.5098
ltibia 16.3998
lfoot -5.46487 11.227
ltoes -4.61713
312
root 5.72302 17.1651 3.15801 59.9936 75.2156 57.23
lowerback 18.156 -1.1429 -1.62492
upperback 14.05 -0.497608 -3.73419
thorax 5.02355 0.300302 -2.96354
lowerneck -9.36571 -10.1668 -9.68215
upperneck 45.426 -8.30267 -3.13047
head 19.5572 -4.58101 -1.10958
rclavicle -1.66979e-014 1.82882e-014
rhumerus -16.819 12.906 -75.7895
rradius 42.0732
rwrist -10.9291
rhand -13.5553 -35.0574
rfingers 7.12502
rthumb 12.5579 -64.66
lclavicle -1.66979e-014 1.82882e-014
lhumerus -2.78778 -12.4044 53.4683
lradius 71.4698
lwrist 47.7058
lhand -20.8056 -21.8099
lfingers 7.12502
lthumb 5.56206 8.09712
rfemur -15.9715 -1.17692 4.54515
rtibia 31.2671
rfoot -19.8586 -5.33393
rtoes 4.63936
lfemur -1.48583 11.0188 -11.0166
ltibia 16.4311
lfoot -4.42325 10.7698
ltoes -3.84781
313
root 5.7313 17.1737 3.20971 61.0224 75.5418 58.233
lowerback 18.0122 -1.25999 -1.12321
upperback 14.1296 -0.562138 -3.93196
thorax 5.17644 0.323964 -3.45148
lowerneck -9.66612 -10.1007 -9.19348
upperneck 44.768 -8.47038 -3.0989
head 19.1492 -4.58822 -1.18957
rclavicle -1.27222e-014 3.18055e-015
rhumerus -18.3194 15.2952 -76.8564
rradius 43.4737
rwrist -11.5807
rhand -13.4377 -34.6953
rfingers 7.12502
rthumb 12.6712 -64.2909
lclavicle -1.27222e-014 3.18055e-015
lhumerus -1.86152 -10.806 54.2564
lradius 69.5975
lwrist 46.9428
lhand -23.3344 -22.5153
lfingers 7.12502
lthumb 3.12021 7.44157
rfemur -15.7253 -1.19537 4.93344
rtibia 31.0263
rfoot -19.8937 -5.87957
rtoes 4.88275
lfemur -1.57333 10.9646 -10.3648
ltibia 16.3954
lfoot -3.44049 10.4085
ltoes -2.26116
314
root 5.74123 17.1791 3.26043 62.6461 75.6776 59.9171
lowerback 18.2888 -1.47518 -0.985989
upperback 13.95 -0.844599 -4.11822
thorax 4.81108 0.196187 -3.68783
lowerneck -10.0301 -9.89818 -8.82336
upperneck 44.432 -8.19806 -3.37126
head 18.9597 -4.46886 -1.33014
rclavicle -2.54444e-014 -2.50469e-014
rhumerus -20.1661 18.1217 -78.0291
rradius 45.0285
rwrist -12.024
rhand -13.1848 -34.6841
rfingers 7.12502
rthumb 12.9151 -64.2644
lclavicle -2.54444e-014 -2.50469e-014
lhumerus -1.81525 -9.28169 55.1674
lradius 68.0338
lwrist 47.0316
lhand -25.7175 -23.3139
lfingers 7.12502
lthumb 0.818596 6.66431
rfemur -15.4374 -1.3102 5.01867
rtibia 30.8714
rfoot -19.905 -6.30669
rtoes 5.29691
lfemur -1.58178 10.7853 -9.98364
ltibia 16.3279
lfoot -2.56745 9.76959
ltoes 0.337949
315
root 5.74917 17.1837 3.30853 64.4125 75.6536 61.6965
lowerback 18.3332 -1.74279 -1.08497
upperback 13.7526 -1.2323 -4.22083
thorax 4.54225 -0.0118486 -3.68412
lowerneck -10.4494 -9.60727 -9.08589
upperneck 44.3395 -7.76234 -3.18215
head 19.0423 -4.32045 -1.13496
rclavicle 1.27222e-014 2.8625e-014
rhumerus -21.9159 21.3637 -79.0477
rradius 46.6753
rwrist -12.4469
rhand -12.2421 -35.5628
rfingers 7.12502
rthumb 13.8237 -65.0835
lclavicle 1.27222e-014 2.8625e-014
lhumerus -2.12432 -7.56513 56.2147
lradius 66.5444
lwrist 47.3378
lhand -27.9099 -24.0447
lfingers 7.12502
lthumb -1.29889 5.93114
rfemur -15.2381 -1.39079 4.92713
rtibia 30.7844
rfoot -19.9761 -6.53101
rtoes 5.61129
lfemur -1.68111 10.6981 -9.76502
ltibia 16.3397
lfoot -1.4751 8.86012
ltoes 1.76605
316
root 5.75664 17.1888 3.35499 66.4891 75.5406 63.6917
lowerback 18.1803 -1.87489 -1.00044
upperback 13.6846 -1.38943 -4.47752
thorax 4.52834 -0.0724409 -3.98616
lowerneck -10.8328 -9.52849 -9.24739
upperneck 44.2739 -7.93861 -2.42466
head 19.1763 -4.32513 -0.801343
rclavicle -1.94809e-014 -9.93923e-015
rhumerus -23.5169 23.7072 -80.173
rradius 48.2484
rwrist -12.7099
rhand -10.9746 -36.4315
rfingers 7.12502
rthumb 15.0449 -65.8648
lclavicle -1.94809e-014 -9.93923e-015
lhumerus -1.71295 -6.39131 56.9343
lradius 64.9529
lwrist 47.4384
lhand -29.8791 -24.8313
lfingers 7.12502
lthumb -3.20073 5.12442
rfemur -15.1215 -1.47501 4.71292
rtibia 30.6488
rfoot -20.1291 -6.82971
rtoes 6.0193
lfemur -1.92341 10.6336 -9.68069
ltibia 16.3652
lfoot 0.04363 7.98357
ltoes 1.85193
317
root 5.76535 17.1971 3.40135 68.7213 75.4072 65.8838
lowerback 18.0384 -2.06504 -1.02779
upperback 13.6466 -1.63236 -4.70704
thorax 4.53911 -0.183892 -4.18456
lowerneck -11.1548 -9.36399 -9.21656
upperneck 43.9341 -7.96195 -1.94947
head 19.0702 -4.28224 -0.589004
rclavicle -1.94809e-014 -1.66979e-014
rhumerus -25.1656 26.2108 -81.3498
rradius 49.8399
rwrist -12.9555
rhand -10.5961 -36.1517
rfingers 7.12502
rthumb 15.4096 -65.5573
lclavicle -1.94809e-014 -1.66979e-014
lhumerus -1.5599 -5.09766 57.6401
lradius 63.5456
lwrist 47.4328
lhand -31.5822 -25.4251
lfingers 7.12502
lthumb -4.84535 4.49948
rfemur -14.9382 -1.56257 4.45868
rtibia 30.4852
rfoot -20.3027 -7.14806
rtoes 7.05188
lfemur -2.1093 10.3547 -9.62035
ltibia 16.2601
lfoot 1.45443 7.34394
ltoes 1.18484
318
root 5.77677 17.209 3.4463 70.5729 75.2822 67.707
lowerback 17.8904 -2.12507 -0.726393
upperback 13.709 -1.6394 -5.10899
thorax 4.66983 -0.133687 -4.79263
lowerneck -11.4925 -9.3221 -8.54944
upperneck 43.3408 -8.35578 -1.59507
head 18.7517 -4.30682 -0.605279
rclavicle -1.27222e-014 -3.06128e-014
rhumerus -26.8433 27.8054 -82.78
rradius 51.5204
rwrist -13.0124
rhand -10.6772 -35.4115
rfingers 7.12502
rthumb 15.3314 -64.8232
lclavicle -1.27222e-014 -3.06128e-014
lhumerus -0.836877 -4.54236 57.9895
lradius 62.1713
lwrist 47.9171
lhand -33.4018 -25.8059
lfingers 7.12502
lthumb -6.6021 4.07118
rfemur -14.7696 -1.67145 4.26792
rtibia 30.3842
rfoot -20.4311 -7.37539
rtoes 7.67016
lfemur -2.21013 10.1021 -9.46544
ltibia 16.1098
lfoot 2.57592 6.77919
ltoes -1.38947
319
root 5.78562 17.2193 3.48823 72.392 75.2198 69.3914
lowerback 17.666 -2.2451 -0.380394
upperback 13.6586 -1.74446 -5.42169
thorax 4.70377 -0.144853 -5.31634
lowerneck -11.9907 -9.25376 -8.00039
upperneck 43.0147 -8.54059 -1.4328
head 18.6433 -4.28443 -0.671163
rclavicle -1.59028e-014 -4.69132e-014
rhumerus -28.5618 29.514 -84.1683
rradius 53.2941
rwrist -13.2109
rhand -9.89303 -35.5264
rfingers 7.12502
rthumb 16.0867 -64.8787
lclavicle -1.59028e-014 -4.69132e-014
lhumerus -0.5161 -4.09714 58.3
lradius 60.88
lwrist 48.399
lhand -35.1194 -25.7841
lfingers 7.12502
lthumb -8.26004 4.03445
rfemur -14.778 -1.91432 4.15829
rtibia 30.3868
rfoot -20.5356 -7.66314
rtoes 7.40717
lfemur -2.45016 9.96323 -9.22814
ltibia 16.0293
lfoot 4.28458 5.59882
ltoes 1.02487
320
root 5.78989 17.2266 3.53238 74.1237 75.3189 70.9851
lowerback 17.5197 -2.48093 -0.123778
upperback 13.5083 -2.04434 -5.47851
thorax 4.56989 -0.28746 -5.4806
lowerneck -12.5604 -9.04197 -8.06195
upperneck 42.8734 -8.33818 -1.14043
head 18.7268 -4.18024 -0.509561
rclavicle -9.93923e-015 -1.43125e-014
rhumerus -30.3461 31.7002 -85.2779
rradius 55.1974
rwrist -13.5838
rhand -8.52367 -36.034
rfingers 7.12502
rthumb 17.4049 -65.2748
lclavicle -9.93923e-015 -1.43125e-014
lhumerus -0.879744 -3.25188 58.8138
lradius 59.7146
lwrist 48.252
lhand -35.8807 -25.2408
lfingers 7.12502
lthumb -8.99472 4.54746
rfemur -14.7919 -2.04014 4.27711
rtibia 30.3619
rfoot -20.6341 -8.0385
rtoes 7.27873
lfemur -2.76463 9.73631 -8.74562
ltibia 16.0385
lfoot 5.60032 4.46774
ltoes 3.94227
321
root 5.8012 17.2343 3.57895 75.5754 75.3708 72.3692
lowerback 17.3374 -2.66261 0.0561378
upperback 13.4765 -2.26355 -5.52217
thorax 4.5979 -0.385921 -5.60277
lowerneck -13.1371 -8.85786 -8.21121
upperneck 42.5815 -8.29307 -0.564157
head 18.7527 -4.11969 -0.226723
rclavicle 2.90226e-014 5.24792e-014
rhumerus -32.0282 33.5125 -86.247
rradius 57.1108
rwrist -13.6651
rhand -7.53849 -35.6537
rfingers 7.12502
rthumb 18.3529 -64.8079
lclavicle 2.90226e-014 5.24792e-014
lhumerus -1.04934 -2.42879 59.3143
lradius 58.5023
lwrist 47.8368
lhand -36.3616 -24.7726
lfingers 7.12502
lthumb -9.45874 4.99513
rfemur -14.6259 -2.0476 4.36599
rtibia 30.1351
rfoot -20.7123 -8.23672
rtoes 8.13833
lfemur -3.00302 9.35724 -8.27431
ltibia 16.1823
lfoot 6.46508 3.28637
ltoes 5.77095
322
root 5.81764 17.2453 3.61858 76.9168 75.2775 73.6378
lowerback 17.0778 -2.8261 0.179901
upperback 13.5145 -2.44911 -5.6902
thorax 4.74618 -0.457343 -5.83821
lowerneck -13.8256 -8.72156 -8.00432
upperneck 42.3405 -8.38435 -0.101106
head 18.8061 -4.07072 -0.0902849
rclavicle -2.14687e-014 -2.66371e-014
rhumerus -33.4687 34.9732 -87.2775
rradius 58.8133
rwrist -13.6273
rhand -6.56843 -34.8586
rfingers 7.12502
rthumb 19.2858 -63.9223
lclavicle -2.14687e-014 -2.66371e-014
lhumerus -0.983485 -1.69725 59.619
lradius 57.0228
lwrist 47.1618
lhand -36.8328 -24.3352
lfingers 7.12502
lthumb -9.91338 5.41142
rfemur -14.4334 -2.20384 4.24086
rtibia 29.8188
rfoot -20.7122 -8.21584
rtoes 9.08173
lfemur -3.27922 8.80451 -8.06433
ltibia 16.5711
lfoot 6.81814 2.08291
ltoes 6.10775
323
root 5.82899 17.2557 3.6551 77.8182 75.1819 74.4838
lowerback 16.9601 -3.01208 0.18381
upperback 13.3986 -2.70914 -5.77834
thorax 4.64509 -0.594097 -5.89964
lowerneck -14.2617 -8.5139 -7.80877
upperneck 42.2366 -8.20649 0.0288554
head 18.84 -3.95735 -0.0435375
rclavicle -4.90998e-014 -6.55989e-014
rhumerus -35.1444 36.8517 -88.3677
rradius 60.5827
rwrist -13.852
rhand -5.08942 -34.894
rfingers 7.12502
rthumb 20.7075 -63.8092
lclavicle -4.90998e-014 -6.55989e-014
lhumerus -1.43921 -0.947431 59.9114
lradius 55.5336
lwrist 46.1603
lhand -36.2594 -24.5648
lfingers 7.12502
lthumb -9.36009 5.2074
rfemur -14.314 -2.32804 4.16108
rtibia 29.5797
rfoot -20.65 -8.21308
rtoes 9.29533
lfemur -3.58552 8.33394 -7.80833
ltibia 17.2789
lfoot 6.67922 1.09713
ltoes 5.14924
324
root 5.84324 17.2679 3.69208 78.6933 74.9816 75.3698
lowerback 16.8342 -3.13286 0.0202897
upperback 13.2672 -2.90631 -5.81041
thorax 4.54766 -0.714716 -5.81282
lowerneck -14.5191 -8.27336 -7.62219
upperneck 42.0432 -7.89695 -0.0389522
head 18.7496 -3.82136 -0.0509069
rclavicle -9.74045e-015 -8.34896e-015
rhumerus -36.9985 38.6812 -89.405
rradius 62.4986
rwrist -14.1655
rhand -3.68638 -35.1735
rfingers 7.12502
rthumb 22.0551 -63.9358
lclavicle -9.74045e-015 -8.34896e-015
lhumerus -1.98201 -0.443948 60.2549
lradius 54.3946
lwrist 45.0762
lhand -36.1612 -24.151
lfingers 7.12502
lthumb -9.26531 5.62541
rfemur -14.098 -2.39304 3.96501
rtibia 29.343
rfoot -20.6973 -8.24463
rtoes 9.53823
lfemur -3.84192 8.08818 -7.62137
ltibia 18.2025
lfoot 6.11097 0.403122
ltoes 2.84285
